<svg width="761" height="150" viewBox="0 0 761 150" fill="none" xmlns="http://www.w3.org/2000/svg">
<g clip-path="url(#clip0_103_171)">
<path fill-rule="evenodd" clip-rule="evenodd" d="M413.811 102.314C412.745 100.637 412.729 98.5015 413.769 96.8086L452.936 33.0773C455.114 29.5326 460.374 29.8425 462.119 33.6184L497.9 111.044C499.227 113.917 497.699 117.297 494.662 118.206L439.002 134.862C436.763 135.532 434.35 134.634 433.098 132.665L413.811 102.314ZM457.455 51.7118C457.832 49.8369 460.407 49.5666 461.168 51.3219L485.849 108.292C486.313 109.364 485.735 110.601 484.613 110.935L446.156 122.387C444.743 122.808 443.389 121.576 443.679 120.133L457.455 51.7118ZM600.513 110.529H611.447V70.5491H600.513V110.529ZM600.048 60.215C600.048 56.6642 602.033 54.8876 606 54.8876C609.966 54.8876 611.95 56.6642 611.95 60.215C611.95 61.9082 611.454 63.2252 610.463 64.1672C609.471 65.1092 607.983 65.5789 606 65.5789C602.033 65.5789 600.048 63.7909 600.048 60.215ZM750.061 92.0064L745.83 92.1491C742.652 92.2452 740.286 92.8184 738.733 93.8663C737.178 94.9159 736.403 96.512 736.403 98.6585C736.403 101.733 738.171 103.271 741.708 103.271C744.24 103.271 746.267 102.545 747.783 101.089C749.301 99.6359 750.061 97.705 750.061 95.2958V92.0064ZM753.287 110.53L751.172 105.094H750.885C749.044 107.408 747.15 109.011 745.202 109.906C743.255 110.799 740.716 111.245 737.586 111.245C733.737 111.245 730.709 110.149 728.497 107.956C726.287 105.764 725.182 102.64 725.182 98.5863C725.182 94.3439 726.669 91.2149 729.644 89.1996C732.621 87.1854 737.107 86.0707 743.106 85.8558L750.061 85.6414V83.8887C750.061 79.8368 747.981 77.8098 743.823 77.8098C740.62 77.8098 736.856 78.7745 732.53 80.7065L728.91 73.3398C733.523 70.9333 738.638 69.7276 744.253 69.7276C749.63 69.7276 753.753 70.8967 756.621 73.2326C759.489 75.5688 760.923 79.122 760.923 83.8887V110.53H753.287ZM693.257 110.53H682.323V87.1788C682.323 84.2948 681.838 82.1321 680.872 80.6888C679.902 79.2466 678.379 78.5246 676.3 78.5246C673.505 78.5246 671.473 79.5509 670.206 81.6002C668.939 83.6511 668.306 87.0249 668.306 91.721V110.53H657.372V70.5503H665.725L667.195 75.6645H667.805C668.879 73.8296 670.434 72.3929 672.465 71.3561C674.496 70.3181 676.827 69.7993 679.455 69.7993C685.454 69.7993 689.516 71.7549 691.644 75.6645H692.611C693.687 73.8046 695.271 72.3624 697.362 71.3372C699.453 70.3119 701.813 69.7993 704.441 69.7993C708.982 69.7993 712.419 70.9622 714.748 73.2866C717.078 75.6113 718.243 79.3365 718.243 84.4603V110.53H707.273V87.1788C707.273 84.2948 706.789 82.1321 705.823 80.6888C704.853 79.2466 703.33 78.5246 701.25 78.5246C698.575 78.5246 696.573 79.4792 695.245 81.3858C693.92 83.2935 693.257 86.3202 693.257 90.4682V110.53ZM645.657 108.027C648.514 105.882 649.942 102.759 649.942 98.6577C649.942 96.6805 649.596 94.9745 648.903 93.5439C648.209 92.1133 647.133 90.8504 645.676 89.7531C644.219 88.6573 641.924 87.4778 638.792 86.2138C635.28 84.8071 633.004 83.7452 631.964 83.0305C630.926 82.3157 630.404 81.4699 630.404 80.4913C630.404 78.7514 632.018 77.8812 635.244 77.8812C637.06 77.8812 638.841 78.1566 640.585 78.7031C642.329 79.2524 644.207 79.9544 646.214 80.8134L649.512 72.9467C644.947 70.8492 640.251 69.8001 635.423 69.8001C630.356 69.8001 626.443 70.7709 623.684 72.7142C620.922 74.6574 619.542 77.4052 619.542 80.9561C619.542 83.0305 619.871 84.7781 620.529 86.196C621.185 87.6143 622.237 88.8717 623.684 89.9679C625.128 91.0653 627.394 92.2572 630.476 93.5439C632.627 94.4503 634.348 95.2433 635.638 95.9226C636.929 96.6022 637.837 97.2109 638.364 97.7462C638.889 98.2828 639.152 98.9798 639.152 99.8384C639.152 102.126 637.167 103.27 633.2 103.27C631.265 103.27 629.024 102.948 626.48 102.306C623.933 101.662 621.646 100.864 619.614 99.909V108.921C621.407 109.684 623.331 110.262 625.386 110.656C627.442 111.049 629.925 111.245 632.842 111.245C638.53 111.245 642.801 110.172 645.657 108.027ZM594.713 70.121C593.733 69.9065 592.503 69.7993 591.021 69.7993C588.535 69.7993 586.235 70.4847 584.121 71.8559C582.004 73.2275 580.326 75.0331 579.083 77.2729H578.546L576.932 70.5503H568.651V110.53H579.585V90.1828C579.585 86.9644 580.559 84.4603 582.505 82.6725C584.455 80.8844 587.172 79.9903 590.663 79.9903C591.93 79.9903 593.004 80.1102 593.889 80.3478L594.713 70.121ZM536.469 82.8511H540.126C543.544 82.8511 546.1 82.178 547.797 80.8307C549.494 79.4846 550.342 77.5225 550.342 74.9478C550.342 72.3504 549.631 70.4311 548.21 69.191C546.787 67.951 544.559 67.331 541.523 67.331H536.469V82.8511ZM561.563 74.5552C561.563 80.182 559.801 84.485 556.274 87.4639C552.75 90.4451 547.737 91.9339 541.238 91.9339H536.469V110.53H525.356V58.2486H542.097C548.455 58.2486 553.288 59.6135 556.598 62.3435C559.909 65.0735 561.563 69.1448 561.563 74.5552Z" fill="#2D3748"/>
</g>
<path d="M296.06 93.6299V100.744H265.847V93.6299H296.06ZM284.798 81.4902V113.58H277.139V81.4902H284.798Z" fill="black"/>
<rect x="35.8208" y="116.087" width="33.5821" height="33.4868" fill="#2D3748" fill-opacity="0.4"/>
<rect x="76.1194" y="116.087" width="33.5821" height="33.4868" fill="#2D3748" fill-opacity="0.4"/>
<rect x="116.418" y="116.087" width="33.5821" height="33.4868" fill="#2D3748" fill-opacity="0.4"/>
<rect x="76.1194" y="75.9034" width="33.5821" height="33.4868" fill="#2D3748" fill-opacity="0.4"/>
<rect x="116.418" y="75.9034" width="33.5821" height="33.4868" fill="#2D3748" fill-opacity="0.4"/>
<rect x="116.418" y="35.7192" width="33.5821" height="33.4868" fill="#2D3748" fill-opacity="0.4"/>
<path d="M85.1012 149.116C104.131 146.092 120.922 135.994 130.437 123.443C106.37 140.459 64.3922 88.5547 31.9296 57.8585C-4.63367 23.2849 -7.23765 88.5547 11.2206 116.46C28.5713 142.692 58.7952 153.296 85.1012 149.116Z" fill="#2D3748"/>
<path d="M31.3698 91.9034C52.4146 136.999 92.937 143.436 109.728 141.017L104.131 143.808C57.5639 144.701 28.9444 111.809 21.8549 95.252L16.8176 97.4845L19.0564 74.0438L38.0862 89.1128L31.3698 91.9034Z" fill="white"/>
<path d="M64.3656 0.883926C45.3358 3.90759 28.5447 14.0056 19.0298 26.5571C43.097 9.54074 85.0746 61.4453 117.537 92.1415C154.1 126.715 156.704 61.4453 138.246 33.5396C120.895 7.3083 90.6716 -3.29585 64.3656 0.883926Z" fill="#2D3748"/>
<path d="M118.097 58.0966C97.0522 13.0011 56.5298 6.56415 39.7388 8.98264L45.3358 6.19208C91.9029 5.29909 120.522 38.1906 127.612 54.7479L132.649 52.5155L130.41 75.9562L111.381 60.8872L118.097 58.0966Z" fill="white"/>
<defs>
<clipPath id="clip0_103_171">
<rect width="348" height="108" fill="white" transform="translate(413 29)"/>
</clipPath>
</defs>
</svg>
